<svg width="138" height="53" viewBox="0 0 138 53" fill="none" xmlns="http://www.w3.org/2000/svg">
<path d="M8.09375 25.5625L6.0625 29.7188L1.46875 30.375C0.65625 30.5 0.34375 31.5 0.9375 32.0938L4.21875 35.3125L3.4375 39.8438C3.3125 40.6562 4.1875 41.2812 4.90625 40.9062L9 38.75L13.0625 40.9062C13.7812 41.2812 14.6562 40.6562 14.5312 39.8438L13.75 35.3125L17.0312 32.0938C17.625 31.5 17.3125 30.5 16.5 30.375L11.9375 29.7188L9.875 25.5625C9.53125 24.8438 8.46875 24.8125 8.09375 25.5625Z" fill="#FFBB00"/>
<path d="M38.0938 25.5625L36.0625 29.7188L31.4688 30.375C30.6562 30.5 30.3438 31.5 30.9375 32.0938L34.2188 35.3125L33.4375 39.8438C33.3125 40.6562 34.1875 41.2812 34.9062 40.9062L39 38.75L43.0625 40.9062C43.7812 41.2812 44.6562 40.6562 44.5312 39.8438L43.75 35.3125L47.0312 32.0938C47.625 31.5 47.3125 30.5 46.5 30.375L41.9375 29.7188L39.875 25.5625C39.5312 24.8438 38.4688 24.8125 38.0938 25.5625Z" fill="#FFBB00"/>
<path d="M68.0938 25.5625L66.0625 29.7188L61.4688 30.375C60.6562 30.5 60.3438 31.5 60.9375 32.0938L64.2188 35.3125L63.4375 39.8438C63.3125 40.6562 64.1875 41.2812 64.9062 40.9062L69 38.75L73.0625 40.9062C73.7812 41.2812 74.6562 40.6562 74.5312 39.8438L73.75 35.3125L77.0312 32.0938C77.625 31.5 77.3125 30.5 76.5 30.375L71.9375 29.7188L69.875 25.5625C69.5312 24.8438 68.4688 24.8125 68.0938 25.5625Z" fill="#FFBB00"/>
<path d="M98.0938 25.5625L96.0625 29.7188L91.4688 30.375C90.6562 30.5 90.3438 31.5 90.9375 32.0938L94.2188 35.3125L93.4375 39.8438C93.3125 40.6562 94.1875 41.2812 94.9062 40.9062L99 38.75L103.062 40.9062C103.781 41.2812 104.656 40.6562 104.531 39.8438L103.75 35.3125L107.031 32.0938C107.625 31.5 107.312 30.5 106.5 30.375L101.938 29.7188L99.875 25.5625C99.5312 24.8438 98.4688 24.8125 98.0938 25.5625Z" fill="#FFBB00"/>
<path d="M128.094 25.5625L126.062 29.7188L121.469 30.375C120.656 30.5 120.344 31.5 120.938 32.0938L124.219 35.3125L123.438 39.8438C123.312 40.6562 124.188 41.2812 124.906 40.9062L129 38.75L133.062 40.9062C133.781 41.2812 134.656 40.6562 134.531 39.8438L133.75 35.3125L137.031 32.0938C137.625 31.5 137.312 30.5 136.5 30.375L131.938 29.7188L129.875 25.5625C129.531 24.8438 128.469 24.8125 128.094 25.5625Z" fill="#FFBB00"/>
</svg>
